<svg xmlns="http://www.w3.org/2000/svg" width="128" height="128" viewBox="0 0 128 128" fill="#ff7820">
	<path d="M39.385 110.854q0 5.602-3.396 9.167-3.225 3.396-9.846 3.396H13.241q-6.79 0-10.016-3.396Q0 116.626 0 110.854V94.218q0-3.396 3.395-3.396h10.356q3.395 0 3.395 3.396v12.901q0 1.189.679 2.038.849.679 1.867.679h.17q1.019 0 1.698-.68.849-.848.849-2.037V87.257L3.395 84.881Q0 84.37 0 81.146v-64q0-5.602 3.225-8.998 3.226-3.565 10.016-3.565h12.902q6.79 0 10.016 3.565 3.226 3.396 3.226 8.998v48.212q0 3.395-3.396 3.395H25.804q-3.395 0-3.395-3.395V20.881q0-1.189-.85-1.868-.678-.849-1.697-.849h-.17q-1.018 0-1.867.85-.68.678-.68 1.867v52.116l18.844 2.377q3.396.51 3.396 3.735z" />
	<path d="M83.862 110.854q0 5.602-3.395 9.167-3.226 3.396-9.846 3.396H57.719q-6.79 0-10.016-3.396-3.226-3.395-3.226-9.167V94.218q0-3.396 3.396-3.396h10.355q3.395 0 3.395 3.396v12.901q0 1.189.68 2.038.848.679 1.867.679h.17q1.018 0 1.697-.68.849-.848.849-2.037V87.257l-19.013-2.376q-3.396-.51-3.396-3.735v-64q0-5.602 3.226-8.998 3.225-3.565 10.016-3.565H70.62q6.79 0 10.016 3.565 3.225 3.396 3.225 8.998v48.212q0 3.395-3.395 3.395H70.28q-3.395 0-3.395-3.395V20.881q0-1.189-.849-1.868-.679-.849-1.697-.849h-.17q-1.019 0-1.868.85-.679.678-.679 1.867v52.116l18.844 2.377q3.395.51 3.395 3.735z" />
	<path d="M88.955 7.979q0-3.396 3.395-3.396h10.186q3.395 0 3.395 3.396v101.857h2.716q2.377 0 2.377-2.717V72.15q0-3.396 3.395-3.396h10.186q3.395 0 3.395 3.396v37.008q0 5.772-3.735 10.016-3.565 4.244-9.506 4.244H92.35q-3.395 0-3.395-3.396z" />
</svg>